<?xml version="1.0" encoding="iso-8859-1"?>
<!-- Generator: Adobe Illustrator 19.0.0, SVG Export Plug-In . SVG Version: 6.00 Build 0)  -->
<svg version="1.1" id="Capa_1" xmlns="http://www.w3.org/2000/svg" xmlns:xlink="http://www.w3.org/1999/xlink" x="0px" y="0px"
	 viewBox="0 0 60 60" style="enable-background:new 0 0 60 60;" xml:space="preserve">
<g>
	<g>
		<path d="M54.59,30.448c-0.074-0.088-0.165-0.151-0.259-0.207c0.484-0.745,0.857-1.523,1.135-2.325
			C58.409,25.552,60,22.774,60,19.913c0-0.552-0.448-1-1-1s-1,0.448-1,1c0,2.24-1.346,4.471-3.805,6.442
			c-0.049,0.026-0.101,0.045-0.146,0.08c-5.167,3.996-14.574,6.479-24.548,6.479c-8.169,0-15.948-1.652-21.361-4.474
			C4.344,26.193,2,22.957,2,19.913c0-0.552-0.448-1-1-1s-1,0.448-1,1c0,3.017,1.764,6.125,4.745,8.584
			c0.008,0.023,0.008,0.047,0.017,0.07c0.265,0.621,0.615,1.219,1.005,1.803c-0.031,0.028-0.069,0.044-0.096,0.077l-4.606,5.501
			c-0.354,0.423-0.299,1.054,0.125,1.409c0.188,0.157,0.415,0.233,0.642,0.233c0.286,0,0.569-0.122,0.767-0.358l4.41-5.267
			c1.205,1.317,2.744,2.502,4.534,3.538l-3.154,5.704C8.122,41.691,8.297,42.3,8.78,42.567c0.153,0.085,0.319,0.125,0.483,0.125
			c0.352,0,0.694-0.186,0.876-0.516l3.173-5.738c1.802,0.865,3.796,1.595,5.953,2.153l-0.569,6.59
			c-0.048,0.55,0.36,1.035,0.91,1.082c0.029,0.003,0.058,0.004,0.087,0.004c0.514,0,0.95-0.393,0.995-0.914l0.545-6.307
			c2.48,0.507,5.129,0.794,7.869,0.847L29,46.07c-0.009,0.552,0.431,1.007,0.983,1.017c0.006,0,0.011,0,0.017,0
			c0.544,0,0.99-0.437,1-0.983l0.102-6.218c2.766-0.066,5.434-0.366,7.923-0.892l0.549,6.358c0.045,0.521,0.481,0.914,0.995,0.914
			c0.029,0,0.058-0.001,0.087-0.004c0.55-0.047,0.958-0.532,0.91-1.082l-0.575-6.658c2.141-0.571,4.126-1.305,5.906-2.179
			l3.225,5.832c0.182,0.33,0.524,0.516,0.876,0.516c0.164,0,0.33-0.04,0.483-0.125c0.483-0.267,0.659-0.875,0.391-1.359
			l-3.216-5.817c1.778-1.052,3.279-2.26,4.461-3.587l4.545,5.429c0.198,0.236,0.481,0.358,0.767,0.358
			c0.227,0,0.454-0.077,0.642-0.233c0.423-0.354,0.479-0.985,0.125-1.409L54.59,30.448z M30,37.914
			c-8.892,0-16.996-2.755-21.13-6.887c5.557,2.496,12.829,3.887,20.63,3.887c8.68,0,16.737-1.744,22.432-4.765
			C48.133,34.741,39.56,37.914,30,37.914z"/>
		<path d="M25.76,15.85c1.232-0.613,2.698-0.937,4.24-0.937c1.609,0,3.184,0.369,4.437,1.039c0.15,0.08,0.312,0.118,0.471,0.118
			c0.357,0,0.703-0.191,0.883-0.528c0.26-0.487,0.077-1.093-0.41-1.354c-1.56-0.834-3.42-1.275-5.38-1.275
			c-1.85,0-3.624,0.396-5.13,1.146c-0.495,0.246-0.696,0.847-0.45,1.341C24.666,15.894,25.264,16.095,25.76,15.85z"/>
	</g>
</g>
<g>
</g>
<g>
</g>
<g>
</g>
<g>
</g>
<g>
</g>
<g>
</g>
<g>
</g>
<g>
</g>
<g>
</g>
<g>
</g>
<g>
</g>
<g>
</g>
<g>
</g>
<g>
</g>
<g>
</g>
</svg>
